<svg width="200" height="200" viewBox="0 0 200 200" fill="none" xmlns="http://www.w3.org/2000/svg">
  <circle cx="100" cy="100" r="90" fill="url(#paint0_linear)" />
  <path d="M50 80C50 69.5066 58.5066 61 69 61H131C141.493 61 150 69.5066 150 80V120C150 130.493 141.493 139 131 139H69C58.5066 139 50 130.493 50 120V80Z" fill="white" fill-opacity="0.9"/>
  <path d="M70 90C70 84.4772 74.4772 80 80 80H120C125.523 80 130 84.4772 130 90V110C130 115.523 125.523 120 120 120H80C74.4772 120 70 115.523 70 110V90Z" fill="url(#paint1_linear)"/>
  <path d="M85 100L100 110L115 100" stroke="white" stroke-width="6" stroke-linecap="round" stroke-linejoin="round"/>
  <path d="M85 90L100 100L115 90" stroke="white" stroke-width="6" stroke-linecap="round" stroke-linejoin="round"/>
  <defs>
    <linearGradient id="paint0_linear" x1="40" y1="40" x2="160" y2="160" gradientUnits="userSpaceOnUse">
      <stop stop-color="#4F46E5"/>
      <stop offset="1" stop-color="#0EA5E9"/>
    </linearGradient>
    <linearGradient id="paint1_linear" x1="70" y1="80" x2="130" y2="120" gradientUnits="userSpaceOnUse">
      <stop stop-color="#F97316"/>
      <stop offset="1" stop-color="#EC4899"/>
    </linearGradient>
  </defs>
</svg>
